<svg xmlns="http://www.w3.org/2000/svg" viewBox="0 0 151.2 148.17"><g id="Layer_1" data-name="Layer 1"><path d="M57.55,113.5a1.46,1.46,0,0,0-1,.52,41.56,41.56,0,0,1-5.1,4.07,23.88,23.88,0,0,1-7.14,3.24c-1.19.32-2.41.53-3.61.76a28.82,28.82,0,0,1-6.88.35A29,29,0,0,1,16,115a31.1,31.1,0,0,1-6.32-8.15,29.5,29.5,0,0,1-1.48-3.11C7.43,101.82,6.6,100,6,98a35.48,35.48,0,0,1-1.69-7c-.13-1.14-.41-2.27-.51-3.41a47.36,47.36,0,0,1,0-8.25c.17-1.76.51-3.5.82-5.23.14-.8.41-1.58.58-2.38a31.74,31.74,0,0,1,1.63-5A41.38,41.38,0,0,1,10.59,59a36.8,36.8,0,0,1,8.3-8.86,40.9,40.9,0,0,1,9.52-5.35,36.8,36.8,0,0,1,7-1.94,39.39,39.39,0,0,1,6.85-.7,36.38,36.38,0,0,1,8.19.83c1.56.34,3.07.86,4.62,1.27a9.71,9.71,0,0,0,1.7.18,1.07,1.07,0,0,0,1.12-.8,5.6,5.6,0,0,0,.4-1.94V32c-.08-5.8-.2-11.51-.3-17.26a10.19,10.19,0,0,0-.08-1.35,2.85,2.85,0,0,0-2-2.41,11.94,11.94,0,0,0-2.9-.58h-.73a1.21,1.21,0,0,1-1.15-1.29A1.24,1.24,0,0,1,52,8.05a9.74,9.74,0,0,1,1.32-.31,47.21,47.21,0,0,0,5.27-1.18c1.08-.28,2.17-.46,3.25-.7l9.86-2.28c.88-.2,1.75-.45,2.63-.63,2.34-.45,4.66-1,7-1.27a55.15,55.15,0,0,1,6-.51,126.89,126.89,0,0,1,12.94.21,14.44,14.44,0,0,1,1.61.06c.81.06,1.63.14,2.44.23,1,.09,1.93.2,2.9.32a49.34,49.34,0,0,1,8.42,1.73,39.77,39.77,0,0,1,7,2.7A28.09,28.09,0,0,1,133.5,16a31.62,31.62,0,0,1,3.34,7.11,38.07,38.07,0,0,1,1.48,6.59,22.33,22.33,0,0,1,.12,2.83,24.76,24.76,0,0,1-1.53,9.3,26.64,26.64,0,0,1-6,9.5,35.63,35.63,0,0,1-10.15,7.09,56,56,0,0,1-8.4,3.17,59.91,59.91,0,0,1-6.47,1.47c-.64.11-1,.35-.91.63s.45.52.83.61a28.21,28.21,0,0,1,8.39,3.78,36.41,36.41,0,0,1,6.25,5.37,71.35,71.35,0,0,1,6.24,7.93c1,1.45,2,2.9,3,4.34.44.65.86,1.3,1.28,1.93,2.12,3.23,4.15,6.52,6,9.87,2.28,4,4.43,8.14,6.32,12.39a39.29,39.29,0,0,0,3.62,6.29,10,10,0,0,0,6,4.26c.32.08.64.17,1,.28a2.56,2.56,0,0,1,.56.24.64.64,0,0,1,.27.76.54.54,0,0,1-.5.47c-.44,0-.9,0-1.35,0H126.65c-1.68,0-3.37-.07-5.05,0a4.48,4.48,0,0,1-3.53-1.44q-1.54-1.61-3-3.29a71,71,0,0,1-5.8-7.8A82.29,82.29,0,0,1,102.85,98q-1.93-4.38-3.66-8.87-1.83-4.75-3.74-9.51c-.7-1.71-1.4-3.42-2.21-5.08a20.51,20.51,0,0,0-3.39-5.1,8.19,8.19,0,0,0-3.38-2.21,2.7,2.7,0,0,0-2.14.14A2.31,2.31,0,0,0,83,69.14a6.69,6.69,0,0,0-.13,1.34v36.63a29,29,0,0,0,.85,6.94,7.61,7.61,0,0,0,5.56,5.71,14,14,0,0,0,1.93.37c.48.1,1,.16,1.44.29a1,1,0,0,1,.64,1.06.85.85,0,0,1-.79.83,4.45,4.45,0,0,1-.73,0c-1.19,0-2.39-.07-3.58-.07H60.31a1.93,1.93,0,0,1-2.06-1.79v-.07a11.2,11.2,0,0,1-.06-1.83c0-1.28.07-2.55.09-3.87A1.25,1.25,0,0,0,57.55,113.5Zm.54-23.08a2.1,2.1,0,0,0,.19-1.35V77.85c0-5.29,0-10.63-.28-15.89a28,28,0,0,1,.13-2.9,8.28,8.28,0,0,0,0-1.22,34.39,34.39,0,0,1-.23-3.93c0-1,0-1.94-.1-3a14.64,14.64,0,0,0-.2-2.09c-.15-1-.57-1.4-1.64-1.4H50.9c-1.69,0-3.35.2-5,.31a3.85,3.85,0,0,0-.49.07,55.44,55.44,0,0,0-6.2,1.51,11.32,11.32,0,0,0-2.37,1,10,10,0,0,0-4.93,6.2c-.19.7-.32,1.43-.45,2.15s-.22,1.55-.4,2.3a17.9,17.9,0,0,0-.56,3.64,2.65,2.65,0,0,1-.07.48,40,40,0,0,0-1.15,8.14c-.14,3.25-.13,6.5,0,9.75.07,1.55.17,3.11.33,4.66s.44,3,.67,4.51c.12.72.23,1.46.41,2.17a56.16,56.16,0,0,0,2.21,7.29,12.44,12.44,0,0,0,2,3.51,22.44,22.44,0,0,0,1.84,2.17,11,11,0,0,0,4.83,3c.91.26,1.8.51,2.73.69a22.11,22.11,0,0,0,5.73.54,8.66,8.66,0,0,0,6.42-3.16c.19-.21.36-.45.56-.65a4.32,4.32,0,0,0,1.29-3.8,1.58,1.58,0,0,0-1-1.44,34.25,34.25,0,0,1-3.95-2.27,22,22,0,0,1-4.89-3.86c-.39-.43-.81-.82-1.18-1.26A15.77,15.77,0,0,1,44.9,92,42.09,42.09,0,0,1,43,88.12a29.11,29.11,0,0,1-1-3.55.65.65,0,0,1,.23-.82,13.76,13.76,0,0,0,.92,1.08c.82.81,1.66,1.6,2.51,2.37A11.94,11.94,0,0,0,51.59,90a40.27,40.27,0,0,0,4.38.53A5.06,5.06,0,0,0,58.09,90.42ZM82.82,39.9a14.3,14.3,0,0,0,1.56.66,21.91,21.91,0,0,1,7.68,4.3A15.14,15.14,0,0,1,95.38,50a5.92,5.92,0,0,1,.16,4.34,2.14,2.14,0,0,1-2.27,1.49A3.17,3.17,0,0,1,91.39,55c-.76-.62-1.52-1.26-2.32-1.82a10.85,10.85,0,0,0-4.9-1.87c-1.28-.16-1.36.12-1.36,1.24,0,2.62,0,5.25,0,7.88a8.27,8.27,0,0,0,.07,1.11,2.21,2.21,0,0,0,1.3,1.82,3.59,3.59,0,0,0,1,.37c1.1.15,2.2.27,3.3.34A9.11,9.11,0,0,0,90,63.91c.28,0,.56-.11.85-.13a18,18,0,0,0,4.67-1.05,19.28,19.28,0,0,0,11-10.36,42.2,42.2,0,0,0,1.94-5.57,52.15,52.15,0,0,0,1.63-8.58,43.16,43.16,0,0,0-.11-9.09,41,41,0,0,0-1.37-7,48.88,48.88,0,0,0-3.18-8.69A16.25,16.25,0,0,0,101.35,8a13.19,13.19,0,0,0-5.17-2.78A17.74,17.74,0,0,0,91,4.5c-1.56.07-3.12,0-4.69,0a4.12,4.12,0,0,0-.86,0c-1.47.32-2.34.6-2.54,2.49a23,23,0,0,0-.08,2.34v29Z" transform="translate(-3.58 -1.09)"/><path d="M145.2,136.28V148.7a5.79,5.79,0,0,1-2.65.11,6.31,6.31,0,0,1-.1-.76V130.8c0-.23.05-.47.08-.77a3.42,3.42,0,0,1,.72-.16h2.33c.55,0,.71.18.85.72.53,2.1,1,4.22,1.56,6.33.21.87.44,1.74.68,2.61a.8.8,0,0,0,.46.62c0-.47.05-.9.05-1.35v-7.39a10.79,10.79,0,0,1,0-1.29,3.15,3.15,0,0,1,2.22-.15c.31.29.23.69.23,1v16.38a2.86,2.86,0,0,1-.12,1.33,5.23,5.23,0,0,1-2.83,0c-1.14-4.11-2.1-8.29-3.26-12.42Z" transform="translate(-3.58 -1.09)"/><path d="M7.58,130a1,1,0,0,1,.34-.11h4.55a4.73,4.73,0,0,1,1.44.29,3.79,3.79,0,0,1,2.4,3.31,6.71,6.71,0,0,1,0,1.1v9.59a7.93,7.93,0,0,1-.24,1.94A3.5,3.5,0,0,1,13,148.81a6.11,6.11,0,0,1-.86.05H8.41a7.58,7.58,0,0,1-.82-.08,2.35,2.35,0,0,1-.18-1.36V131.18A1.92,1.92,0,0,1,7.58,130Zm3,16.1a4.68,4.68,0,0,0,1.75,0,1.11,1.11,0,0,0,1-1,10.14,10.14,0,0,0,.1-1.46v-9.45c-.1-1.11-.51-1.54-1.61-1.6a1.68,1.68,0,0,0-1.27.22c0,.3-.07.66-.08,1a102.2,102.2,0,0,0,.15,12.25Z" transform="translate(-3.58 -1.09)"/><path d="M18.57,148.76c-.15-.89-.25-16.28-.12-18.16a3.3,3.3,0,0,1,.15-.62,6.14,6.14,0,0,1,.86-.12h3.32a8.07,8.07,0,0,1,1.47.16,3.13,3.13,0,0,1,2.76,2.6A12.56,12.56,0,0,1,27,137a2.51,2.51,0,0,1-.87,1.59c-.18.16-.33.35-.52.53a1.21,1.21,0,0,0,.22.32A3,3,0,0,1,27.12,142c.06.86.06,1.73.07,2.59a18.67,18.67,0,0,0,.25,4.09,3.12,3.12,0,0,1-.59.19H25.24c-.69,0-.84-.18-.89-.9V143.3a6.36,6.36,0,0,0-.26-1.56,1.28,1.28,0,0,0-1.18-.94H21.5c-.05.34-.09.68-.11,1v6.72A4,4,0,0,1,18.57,148.76Zm2.9-10.84a2.81,2.81,0,0,0,1.38.1,1.3,1.3,0,0,0,1.24-1,6.71,6.71,0,0,0,0-3.39,1.14,1.14,0,0,0-.68-.81,2.32,2.32,0,0,0-1.93,0,24.84,24.84,0,0,0,0,5.1Z" transform="translate(-3.58 -1.09)"/><path d="M98,139.26a3.65,3.65,0,0,1,1.64,3.49V146a7.88,7.88,0,0,0,.24,2.65,4.26,4.26,0,0,1-2.9.16,3.24,3.24,0,0,1-.18-.76c0-1.4,0-2.79-.07-4.18a9.72,9.72,0,0,0-.18-1.71A1.41,1.41,0,0,0,95,140.82H94a1.12,1.12,0,0,0-.31,1v5.66a2.62,2.62,0,0,1-.14,1.27,6,6,0,0,1-2.6,0,2.93,2.93,0,0,1-.18-1.49V130.5c0-.48.2-.68.7-.67,1.64,0,3.27,0,4.92.1a3.4,3.4,0,0,1,3.12,3.25,24.41,24.41,0,0,1,0,3.2,3,3,0,0,1-1.07,2.27A6.53,6.53,0,0,1,98,139.26Zm-4.06-1.32a2.47,2.47,0,0,0,1.32.09,1.41,1.41,0,0,0,1.33-1.24,8.23,8.23,0,0,0,0-3,1.2,1.2,0,0,0-.83-1,2.47,2.47,0,0,0-1.85,0,19.58,19.58,0,0,0,0,5.13Z" transform="translate(-3.58 -1.09)"/><path d="M70,139.41v4.83a8.54,8.54,0,0,1-.09,1.6,3.78,3.78,0,0,1-3.08,3.26,5.53,5.53,0,0,1-2.8-.06,3.85,3.85,0,0,1-3-3.63,8.25,8.25,0,0,1,0-1.11v-9.75a8.86,8.86,0,0,1,.27-2.18,3.87,3.87,0,0,1,3.47-2.68H66a3.87,3.87,0,0,1,4,3.69v1.48C70,136.38,70,137.9,70,139.41Zm-2.9,0v-4.68a5.48,5.48,0,0,0-.22-1.45,1.33,1.33,0,0,0-1.54-1,1.44,1.44,0,0,0-1.3,1.14,5.66,5.66,0,0,0-.09,1.09v9.61a5,5,0,0,0,.12,1.21,1.34,1.34,0,0,0,1.36,1,1.29,1.29,0,0,0,1.45-.89,5.48,5.48,0,0,0,.22-1.45c0-1.51,0-3.07,0-4.63Z" transform="translate(-3.58 -1.09)"/><path d="M48.78,135.86a5,5,0,0,1-2.44.07c-.36-.35-.23-.74-.26-1.1a14.15,14.15,0,0,0-.14-1.46,1.27,1.27,0,0,0-1.24-1,1.33,1.33,0,0,0-1.48.85,3.57,3.57,0,0,0-.2,1.21v10a3.61,3.61,0,0,0,.07.73,1.44,1.44,0,0,0,1.51,1.35,1.47,1.47,0,0,0,.47-.11,1.17,1.17,0,0,0,.86-.82,2,2,0,0,0,.12-.59v-3.58a1.9,1.9,0,0,0-.14-.4l-1-.21c-.06-.08-.13-.12-.15-.19a6.1,6.1,0,0,1,0-2.37,25.45,25.45,0,0,1,4-.08,5.12,5.12,0,0,1,.17.85v5.42a9.1,9.1,0,0,1-.22,1.72,3.72,3.72,0,0,1-3.21,3,5.61,5.61,0,0,1-2.67-.16,3.8,3.8,0,0,1-2.71-3.33,7.63,7.63,0,0,1-.06-1.35v-9.86a8.73,8.73,0,0,1,.07-1.35,3.93,3.93,0,0,1,1.77-2.83,3.15,3.15,0,0,1,1.73-.56H45a3.58,3.58,0,0,1,3.56,2.5A7,7,0,0,1,48.78,135.86Z" transform="translate(-3.58 -1.09)"/><path d="M35.2,145.31a8,8,0,0,0-3.34.07,27.76,27.76,0,0,1-.58,3.38,7.46,7.46,0,0,1-2.45.1,1.93,1.93,0,0,1-.07-1.34c.27-1.84.56-3.65.85-5.48.22-1.37.49-2.75.71-4.12.18-1,.32-2.11.5-3.17.22-1.33.46-2.66.7-4a1.68,1.68,0,0,1,.08-.36.65.65,0,0,1,.61-.51,31.38,31.38,0,0,1,3.36,0,6.34,6.34,0,0,1,.23.74c.28,1.62.56,3.23.83,4.83s.58,3.48.86,5.23q.61,3.88,1.24,7.78a1.8,1.8,0,0,1-.08.21,2,2,0,0,1-.49.15H36C35.36,147.73,35.62,146.46,35.2,145.31Zm-.42-2.78a3.21,3.21,0,0,0,0-.62c-.35-2.47-.69-4.93-1.06-7.4,0-.1-.13-.18-.2-.27-.08.07-.18.12-.19.17-.34,2.58-.69,5.13-1,7.66a1.52,1.52,0,0,0,.09.51,5.46,5.46,0,0,0,2.38-.05Z" transform="translate(-3.58 -1.09)"/><path d="M57.19,130a5.67,5.67,0,0,1,2.46,0,11.64,11.64,0,0,1-.24,2.35c-.17,1.21-.34,2.43-.54,3.65-.23,1.54-.48,3.08-.71,4.62-.18,1.09-.34,2.19-.5,3.28-.22,1.47-.43,2.9-.65,4.39-.07.42-.25.59-.66.6-1.06,0-2.12.06-3.25,0a3.66,3.66,0,0,1-.3-.8c-.36-2.4-.7-4.83-1.06-7.19-.32-2.11-.67-4.21-1-6.32-.2-1.22-.35-2.44-.52-3.66,0-.27,0-.54,0-.8a2.53,2.53,0,0,1,.64-.21h1.93a3.57,3.57,0,0,1,.5,1.71c.34,2.6.64,5.21,1,7.82.2,1.5.45,3,.72,4.76a13.06,13.06,0,0,0,.42-2.14c.17-1.34.35-2.69.53-4q.39-3.06.76-6.11A5.58,5.58,0,0,1,57.19,130Z" transform="translate(-3.58 -1.09)"/><path d="M117.85,130a4.32,4.32,0,0,1,2.59.08c-.1.75-.18,1.51-.3,2.27q-.39,2.63-.81,5.22c-.28,1.78-.58,3.56-.86,5.35-.13.85-.23,1.7-.35,2.56s-.24,1.78-.37,2.68c-.07.55-.23.7-.8.71h-2.59c-.57,0-.74-.15-.84-.7-.14-.89-.24-1.79-.38-2.68-.24-1.63-.49-3.25-.73-4.83l-.49-3.16c-.27-1.76-.53-3.5-.8-5.23A7.34,7.34,0,0,1,111,130a3,3,0,0,1,.72-.15,5.13,5.13,0,0,1,2,.15,9.39,9.39,0,0,1,.29,1.19c.25,1.93.47,3.86.71,5.73.12,1,.26,1.93.4,2.89.18,1.26.37,2.51.6,4a11.42,11.42,0,0,0,.55-2.38c.17-1.26.35-2.51.53-3.77a8.6,8.6,0,0,1,.08-.86c.24-1.93.48-3.87.74-5.86A6.62,6.62,0,0,1,117.85,130Z" transform="translate(-3.58 -1.09)"/><path d="M135.78,140.45a27.38,27.38,0,0,0,0,5.58,4.89,4.89,0,0,0,.78.15h2.83c.29,0,.57,0,.86,0a.52.52,0,0,1,.57.54,5,5,0,0,1-.11,2,5.12,5.12,0,0,1-.68.14,48,48,0,0,1-7.29-.16,3,3,0,0,1-.11-1.3V130.79c0-.23,0-.47.07-.76a2.61,2.61,0,0,1,.61-.16h7a.55.55,0,0,1,.48.49,8.53,8.53,0,0,1,0,2,5.71,5.71,0,0,1-.82.18h-2.84l-1.23.05a5,5,0,0,0-.22,2.45,9.53,9.53,0,0,0,.09,2.5c1.24.37,2.54,0,3.81.25a4.83,4.83,0,0,1,.06,2.33C138.36,140.57,137.06,140.15,135.78,140.45Z" transform="translate(-3.58 -1.09)"/><path d="M104.87,140.47a24.88,24.88,0,0,0,0,5.59c1.54.35,3.15-.08,4.7.23a4,4,0,0,1,0,2.5,23.84,23.84,0,0,1-3.87.1,31.29,31.29,0,0,1-3.75,0c-.35-.3-.26-.65-.26-1V131.36a3.23,3.23,0,0,1,.15-1.38c.27,0,.55-.09.83-.12a44.41,44.41,0,0,1,6.92.15,4.88,4.88,0,0,1,.08,2.43,4.25,4.25,0,0,1-.71.14h-2.84a2.49,2.49,0,0,0-1.24.15c-.34.46-.16,1-.19,1.53s0,1.15,0,1.73a4,4,0,0,0,.14,1.59c1.25.36,2.54-.06,3.81.27a4.83,4.83,0,0,1,0,2.33C107.44,140.55,106.15,140.15,104.87,140.47Z" transform="translate(-3.58 -1.09)"/><path d="M124.69,148.78c0-.53,0-1,0-1.34,0-1.43-.06-2.9,0-4.31a12.81,12.81,0,0,0-.88-5c-.85-2.49-1.65-5-2.47-7.48a3.35,3.35,0,0,1-.08-.54,7,7,0,0,1,2.84-.15,3.87,3.87,0,0,1,.33.64c.37,1.22.72,2.44,1.08,3.66a9.6,9.6,0,0,0,.78,2.22c.34-.14.35-.43.41-.69.48-1.65,1-3.32,1.41-5a7,7,0,0,1,.35-.79,6.14,6.14,0,0,1,2.63,0,3.47,3.47,0,0,1-.1.85c-.91,2.81-1.83,5.61-2.79,8.41a8.1,8.1,0,0,0-.51,3v6.45A6.39,6.39,0,0,1,124.69,148.78Z" transform="translate(-3.58 -1.09)"/><path d="M81.59,148.86c-.25-1.19-.35-13-.18-18a7.9,7.9,0,0,1,.12-.85,6,6,0,0,1,2.67,0,1.8,1.8,0,0,1,.23,1.34v14.71a6.93,6.93,0,0,0,.89.16h2.59a2.58,2.58,0,0,1,1.26.17,4.76,4.76,0,0,1,.07,2.4,21.79,21.79,0,0,1-3.87.13C84.17,148.91,82.9,148.93,81.59,148.86Z" transform="translate(-3.58 -1.09)"/><path d="M75.16,146.05c1.63.32,3.17-.05,4.67.26a4.63,4.63,0,0,1,.06,2.45,2.91,2.91,0,0,1-.51.12H72.62a1.44,1.44,0,0,1-.41-.15c0-.34-.06-.7-.06-1.07-.09-9,0-16.71.15-17.64a5.54,5.54,0,0,1,2.56,0,1.65,1.65,0,0,1,.26,1.22v13.42C75.09,145,75.14,145.5,75.16,146.05Z" transform="translate(-3.58 -1.09)"/><path d="M51.36,68a8.87,8.87,0,0,1-.78-.59,16.25,16.25,0,0,0-3.86-2.6,4.35,4.35,0,0,0-1.66-.44,8.67,8.67,0,0,0-4.43.74l-.22.11a5.55,5.55,0,0,0-3.06,2.3A.35.35,0,0,1,37,67a29.9,29.9,0,0,1,.82-3.09,8.5,8.5,0,0,1,2.85-3.62A6.18,6.18,0,0,1,43.33,59a3.09,3.09,0,0,1,1.21-.06,7.26,7.26,0,0,1,5,3.34,15.05,15.05,0,0,1,1.67,4.19A2.17,2.17,0,0,1,51.36,68Z" transform="translate(-3.58 -1.09)"/><path d="M88.55,17.11a1.36,1.36,0,0,1,.37.21A5.72,5.72,0,0,0,92,19.25a4.73,4.73,0,0,0,2.18.09,7.34,7.34,0,0,1,4.42.7,4.94,4.94,0,0,1,2.48,2.61c0,.08,0,.22,0,.43-.3-.11-.56-.17-.81-.28a2.54,2.54,0,0,0-2-.12c-.64.26-1.3.48-1.93.76a6.68,6.68,0,0,1-3,.61c-2.6-.08-5-2.84-4.83-5A9.78,9.78,0,0,1,88.55,17.11Z" transform="translate(-3.58 -1.09)"/></g></svg>